<svg width="220" height="40" viewBox="0 0 220 40" fill="none" xmlns="http://www.w3.org/2000/svg">
<g clip-path="url(#clip0_12_32)">
<path fill-rule="evenodd" clip-rule="evenodd" d="M64.8227 1.40777C66.7989 2.34858 68.3108 3.687 69.3636 5.42072C70.4139 7.15904 71.0027 9.2626 71.1319 11.7129C71.2542 14.1748 70.968 16.914 70.264 19.9445C69.5343 23.0466 68.5464 25.8368 67.3045 28.3126C66.0602 30.786 64.5296 32.8942 62.7034 34.6256C60.8774 36.3616 58.7305 37.693 56.2673 38.6176C53.7973 39.54 50.997 40 47.8621 40C44.8772 40 42.3817 39.547 40.4033 38.6478C38.4249 37.7416 36.9313 36.4308 35.9317 34.711C34.9275 32.9958 34.3735 30.8946 34.2742 28.4212C34.168 25.9454 34.4797 23.1554 35.2045 20.0554C35.9133 17.0273 36.936 14.2742 38.2725 11.8007C39.6069 9.32502 41.2044 7.20758 43.072 5.45308C44.9396 3.69626 47.0725 2.34858 49.4665 1.40777C51.8627 0.466944 54.4991 0 57.38 0C60.3696 0 62.849 0.466944 64.8227 1.40777ZM59.2319 19.9985C59.5342 18.5607 59.7373 17.1807 59.8366 15.8723C59.9405 14.5616 59.8667 13.422 59.6103 12.4581C59.3564 11.4987 58.867 10.7382 58.1537 10.1649C57.4404 9.59398 56.4385 9.30502 55.1504 9.30502C54.0792 9.30502 53.0727 9.5801 52.1331 10.1372C51.1912 10.692 50.3532 11.441 49.6145 12.3818C48.8735 13.3203 48.2387 14.4229 47.6823 15.6781C47.1282 16.9333 46.6965 18.2417 46.3734 19.6125C45.981 21.3138 45.734 22.8464 45.6325 24.2056C45.5378 25.5788 45.6325 26.7322 45.9348 27.6708C46.2256 28.6184 46.7381 29.3466 47.4653 29.8644C48.1947 30.38 49.1874 30.6388 50.4387 30.6388C51.6576 30.6388 52.738 30.3544 53.6822 29.779C54.6309 29.2102 55.4574 28.4336 56.1616 27.4534C56.8724 26.4756 57.4795 25.3384 57.9783 24.0484C58.4861 22.754 58.9039 21.4062 59.2319 19.9985Z" fill="#D42A28"/>
<path d="M17.5579 10.4661C17.2693 10.7643 17.0408 11.0971 16.8815 11.467C16.7268 11.8369 16.5952 12.2044 16.5121 12.5743L15.7111 16.007H30.2639C30.7072 16.007 30.9726 16.0833 31.0697 16.2289C31.1643 16.3792 31.1365 16.7698 30.9887 17.3916L29.6407 23.159C29.4445 24.0074 28.9966 24.4304 28.2948 24.4304H13.7442L10.5054 38.284C10.3992 38.7254 10.263 39.0236 10.1014 39.167C9.9421 39.3196 9.54503 39.3934 8.9125 39.3934H1.05895C0.211727 39.3934 -0.132242 39.0236 0.0455137 38.284L6.38931 11.1318C6.70326 9.80264 7.19035 8.50352 7.85983 7.22752C8.52698 5.95382 9.38575 4.83038 10.4454 3.85026C11.505 2.86784 12.7862 2.07726 14.289 1.49243C15.7919 0.902972 17.5209 0.607086 19.474 0.607086H36.3006C36.7438 0.607086 37.0141 0.674122 37.1156 0.803572C37.2079 0.926088 37.1826 1.30519 37.0393 1.93395L35.578 8.19608C35.4604 8.6792 35.315 9.00282 35.1257 9.16696C34.9386 9.33338 34.6431 9.4166 34.2415 9.4166H20.575C19.8341 9.4166 19.2177 9.51832 18.7306 9.72174C18.2366 9.92054 17.8464 10.1679 17.5579 10.4661Z" fill="#D42A28"/>
<path fill-rule="evenodd" clip-rule="evenodd" d="M146.018 2.93164C145.14 2.12026 144.023 1.5308 142.673 1.15632C141.322 0.791091 139.81 0.603851 138.153 0.603851H123.764C122.256 0.603851 121.206 0.908981 120.622 1.52156C120.033 2.12952 119.597 3.0449 119.315 4.26312L111.958 35.7356C111.656 37.0302 111.658 37.964 111.967 38.5304C112.276 39.106 113.184 39.3926 114.698 39.3926H129.085C131.001 39.3926 132.852 39.106 134.628 38.5304C136.401 37.964 138.023 37.1504 139.482 36.0986C140.946 35.0444 142.193 33.7892 143.215 32.3306C144.24 30.8696 144.958 29.2516 145.371 27.4786C145.579 26.5886 145.685 25.6986 145.694 24.7924C145.704 23.8864 145.575 23.0194 145.311 22.1896C145.041 21.3574 144.626 20.6038 144.069 19.915C143.513 19.2331 142.767 18.669 141.835 18.2275L141.916 17.897C143.264 17.1526 144.492 16.1124 145.575 14.7624C146.669 13.4148 147.387 12.0209 147.717 10.5784C148.135 8.81006 148.172 7.29364 147.841 6.03612C147.505 4.78324 146.902 3.74994 146.018 2.93164ZM136.66 12.1827C136.415 13.2576 135.933 13.9719 135.227 14.3464C134.515 14.7139 133.788 14.9035 133.059 14.9035H127.283L128.532 9.57988H134.52C135.363 9.57988 135.979 9.80178 136.369 10.2433C136.762 10.6894 136.861 11.3344 136.66 12.1827ZM134.749 26.7604C134.655 27.1604 134.5 27.5672 134.304 27.9764C134.091 28.3856 133.801 28.7716 133.422 29.1414C133.041 29.5066 132.589 29.8048 132.062 30.029C131.531 30.244 130.901 30.3596 130.167 30.3596H123.673L125.367 23.1012H131.861C133.071 23.1012 133.921 23.4456 134.401 24.1276C134.881 24.8094 135.001 25.6878 134.749 26.7604Z" fill="#D42A28"/>
<path d="M166.725 0.607086H183.044C183.489 0.607086 183.764 0.674122 183.861 0.803572C183.96 0.933022 183.933 1.31213 183.787 1.93626L182.328 8.1984C182.217 8.6792 182.06 9.00282 181.873 9.16696C181.689 9.33108 181.391 9.4166 180.987 9.4166H167.819C167.08 9.4166 166.462 9.51832 165.979 9.71942C165.487 9.92054 165.1 10.1725 164.809 10.473C164.516 10.7666 164.289 11.0971 164.128 11.467C163.969 11.8345 163.849 12.209 163.759 12.5766L163.211 14.9044H178.046C178.489 14.9044 178.759 14.9806 178.856 15.1216C178.948 15.2742 178.921 15.6626 178.771 16.289L177.427 22.0472C177.224 22.9002 176.776 23.321 176.077 23.321H161.249L160.277 27.4794C160.109 28.1868 160.063 28.7416 160.136 29.1462C160.206 29.5506 160.363 29.8488 160.614 30.057C160.864 30.2558 161.182 30.3898 161.57 30.4452C161.967 30.503 162.408 30.5238 162.886 30.5238H176.94C177.383 30.5238 177.651 30.5932 177.75 30.7226C177.85 30.8498 177.827 31.229 177.683 31.8576L176.215 38.1222C176.019 38.9704 175.564 39.3934 174.865 39.3934H157.766C155.549 39.3934 153.829 39.0792 152.594 38.4526C151.355 37.8216 150.457 37.0032 149.905 35.9884C149.344 34.9668 149.069 33.834 149.065 32.5766C149.063 31.3214 149.21 30.0846 149.492 28.8642L153.64 11.1364C153.95 9.80496 154.437 8.50122 155.104 7.22752C155.773 5.95382 156.639 4.82808 157.694 3.85026C158.754 2.87014 160.032 2.08188 161.54 1.49474C163.038 0.902972 164.767 0.607086 166.725 0.607086Z" fill="#D42A28"/>
<path d="M219.211 0.801262C219.076 0.6695 218.785 0.607086 218.347 0.607086H189.181C188.742 0.607086 188.419 0.6695 188.225 0.801262C188.024 0.933022 187.856 1.30981 187.708 1.93626L186.26 8.14522C186.06 8.99358 186.353 9.4166 187.124 9.4166H196.367L189.631 38.2262C189.446 39.0052 189.781 39.3934 190.628 39.3934H198.484C199.112 39.3934 199.509 39.3102 199.685 39.1462C199.848 38.9798 199.987 38.6746 200.086 38.2262L206.824 9.4166H216.284C217.061 9.4166 217.546 8.99358 217.743 8.14522L219.195 1.93626C219.344 1.30981 219.35 0.933022 219.211 0.801262Z" fill="#D42A28"/>
<path d="M105.189 0.607086H113.049C113.897 0.607086 114.231 0.997748 114.042 1.77445L106.122 35.0176C105.821 36.2728 105.314 37.3176 104.6 38.1452C103.887 38.982 102.7 39.3958 101.041 39.3958H98.1618C97.6447 39.3958 97.1807 39.3704 96.7697 39.3102C96.3588 39.2572 95.9941 39.1462 95.6871 38.982C95.3755 38.8132 95.0822 38.5614 94.819 38.2262C94.5421 37.8978 94.2904 37.4518 94.0526 36.8992L89.0223 25.2672L86.2337 18.3949H85.8458L81.1156 38.2262C81.0141 38.6722 80.8779 38.982 80.7093 39.1462C80.5386 39.3102 80.1416 39.3958 79.5137 39.3958H71.6576C70.8105 39.3958 70.4803 39.0074 70.6628 38.2262L78.5856 4.98988C78.9988 3.25386 79.5621 2.0865 80.28 1.49474C80.9864 0.907594 82.1222 0.607086 83.6688 0.607086H86.5476C87.0994 0.607086 87.5725 0.637138 87.9651 0.692616C88.3552 0.750406 88.7084 0.854428 89.0154 1.03011C89.3293 1.19192 89.6133 1.44158 89.865 1.77445C90.1189 2.10732 90.3821 2.55346 90.6545 3.10362L95.7402 14.9598L98.4458 21.719H98.8335L103.587 1.77445C103.693 1.32831 103.827 1.03011 103.998 0.854428C104.169 0.692616 104.566 0.607086 105.189 0.607086Z" fill="#D42A28"/>
</g>
<defs>
<clipPath id="clip0_12_32">
<rect width="220" height="40" fill="white"/>
</clipPath>
</defs>
</svg>
